<?xml version="1.0" encoding="utf-8"?>
<!-- Generator: Adobe Illustrator 27.9.1, SVG Export Plug-In . SVG Version: 6.00 Build 0)  -->
<svg version="1.1" id="Ebene_1" xmlns="http://www.w3.org/2000/svg" xmlns:xlink="http://www.w3.org/1999/xlink" x="0px" y="0px"
	 viewBox="0 0 1920 1080" style="enable-background:new 0 0 1920 1080;" xml:space="preserve">
<style type="text/css">
	.st0{fill:#030504;}
	.st1{fill:#049EF6;}
	.st2{fill:#FEFEFE;}
	.st3{fill:#6D9ECD;}
	.st4{fill:#079C5D;}
	.st5{fill:#63C1FD;}
	.st6{fill:#B2F5FB;}
	.st7{fill:#77E62C;}
	.st8{fill:#F9C509;}
	.st9{fill:#A1F355;}
	.st10{fill:#DC7113;}
	.st11{fill:#223A4F;}
	.st12{fill:#7BEBE7;}
	.st13{fill:#4BD0C8;}
	.st14{fill:#E2FB86;}
</style>
<g>
	<path class="st0" d="M897.02,357.3c0-6.54,0-12.5,0-18.75c-6.5-2.53-10.88-7.06-12.11-14.25c-1.49-8.73,1.29-16.19,7.69-21.88
		c7.23-6.42,16.47-9.66,24.93-14.1c14.89-7.82,29.89-15.42,44.82-23.17c8.08-4.2,16.48-7.12,25.71-7.03
		c8.42,0.08,16.17,2.7,23.64,6.34c20.59,10.04,41.14,20.14,61.77,30.09c6.41,3.09,13.01,5.57,18.31,10.74
		c8.25,8.04,9.51,24.61-0.06,32.08c-1.62,1.27-2.04,2.82-2.03,4.84c0.08,15.87,0.1,31.75-0.01,47.62c-0.02,2.76,0.6,4.17,3.35,5.57
		c7.01,3.55,13.52,7.7,17.31,15.36c2.08,4.21,6.97,6.54,10.09,10.27c7.18,8.59,11.37,18.35,11.96,29.52
		c0.13,2.4,0.68,3.69,2.96,4.83c25.02,12.51,50.06,24.98,74.88,37.86c10.44,5.42,21.31,10.17,30.97,16.93
		c10.37,7.27,15.91,17.45,16.55,30.29c1.27,25.46,0.46,50.93,0.53,76.4c0.06,20.1-8.21,35.54-26.3,45.45
		c-20.89,11.44-41.56,23.28-62.3,34.99c-30.14,17.01-60.27,34.06-90.4,51.09c-23.51,13.28-47.02,26.58-70.56,39.82
		c-7.92,4.45-15.46,9.63-24.22,12.48c-3.91,1.27-7.95,2-11.95,2.26c-18.36,1.19-36.19,0.34-52.68-9.89
		c-14.17-8.79-29.16-16.25-43.77-24.32c-23.71-13.09-47.43-26.16-71.12-39.28c-23.17-12.83-46.3-25.73-69.47-38.56
		c-18.8-10.42-38.28-19.72-56.17-31.65c-12.83-8.55-20.01-21.09-20.07-36.93c-0.11-26.25,0.07-52.5-0.08-78.74
		c-0.09-17.14,7.97-29.24,22.79-36.84c22.93-11.76,45.53-24.12,68.26-36.24c20-10.67,39.96-21.4,59.9-32.17
		c13.91-7.52,27.73-15.19,41.65-22.68c1.79-0.96,2.56-2.01,2.44-4.03c-0.97-15.43-1.24-30.87,0.13-46.27
		c0.74-8.37,8.1-15.16,17.45-17.23C881.2,345.99,887.39,348.19,897.02,357.3z M1108.35,432.35c-0.21-0.12-0.42-0.24-0.64-0.36
		l0.09,0.02c-0.03-0.53-0.23-0.87-0.84-0.79l0.08,0.05c-0.11-0.94-0.45-1.64-1.57-1.58l0.13,0.05c0.08-1.16-0.83-1.3-1.61-1.56
		l0.08,0.06c-0.18-1.44-1.41-1.99-2.38-2.71c-6.13-4.6-13-7.39-20.64-8.04c-13.98-1.2-26.35,3.09-37.37,11.49
		c-9.6,7.32-16.84,16.45-20.66,28.07c-2.38,3.79-4.21,7.78-4.49,12.34c-0.81,0.23-1.19,0.86-1.46,1.58
		c-1.99,5.43-2.98,11.07-3.41,16.82c-0.98,13.34,0.35,26.44,4.58,39.15c1.73,5.2,6.36,7.28,10.95,5.52c3.66-1.4,5.02-5.52,3.3-10.56
		c-1.91-5.59-3.14-11.3-3.49-17.19c-1.23-20.82,5.6-38.78,19.5-54.14c15.69-17.35,44.65-23.39,63.86-3.35
		c0.8,0.84,1.53,2.09,3.2,1.55c1.38-2.78-1.2-4.72-1.6-7.11c-0.32-0.49-0.64-0.97-0.96-1.46l0.04,0.03
		c-0.58-2.74-1.93-5.05-3.97-6.96c0.02-0.17-0.05-0.29-0.21-0.36C1108.7,432.73,1108.53,432.54,1108.35,432.35z M969.67,431.38
		l-0.03-0.01c0.3,0.59,0.82,0.81,1.45,0.85l0.16-0.21l-0.17,0.2c0.84,1,1.88,1.71,3.11,2.15c0.27,0.22,0.54,0.43,0.8,0.65
		c0.95,1.05,1.89,2.1,2.83,3.15c0.63,1.05,1.25,2.09,1.88,3.14c0,0,0.16,0.28,0.16,0.28c0.59,1.42,0.89,2.98,2.01,4.15
		c0.09,0.33,0.18,0.65,0.27,0.98c0,8.35,0,16.7,0,25.05c0.38,0.1,0.76,0.19,1.15,0.29c1.46-1.1,4.08-0.58,3.99-3.79
		c-0.19-7.06-0.2-14.13-0.28-21.2c-0.03-20.65-0.15-41.31,0.01-61.96c0.03-3.55-0.82-5.7-4.41-6.35c-0.24-1.08-1.34-1.08-2.04-1.37
		c-11.62-4.92-22.83-10.7-34.29-15.95c-9.18-4.2-18-9.16-27.46-12.77l0.02,0.01c-1.01-1.08-2.35-1.46-3.71-1.81
		c-0.24-0.09-0.47-0.18-0.71-0.27c-3.54-2.14-2.04,1.35-2.04,2.11c0,15.73,0.16,31.46,0.24,47.19c0.04,9.14,0,9.14,8.66,12.22
		c0.11,0.04,0.25,0.01,0.37,0.02l-0.02-0.01c8.16,4.22,16.3,8.5,24.83,11.97c0.06,0.16,0.18,0.22,0.35,0.19
		c0.38,0.18,0.77,0.37,1.15,0.55c0.07,0.17,0.19,0.24,0.36,0.21c0.54,0.28,1.08,0.56,1.63,0.83l0.05,0.02
		c2.17,1.44,4.49,2.57,6.98,3.36c0.51,0.24,1.01,0.48,1.52,0.72c2.53,1.7,5.2,3.1,8.15,3.94l-0.03-0.01
		c0.37,0.61,0.94,0.78,1.6,0.76l0.3,0.16C968.91,430.99,969.29,431.18,969.67,431.38z M1048.63,408.9l-0.02,0.01
		c3.36-1.2,6.73-2.4,10.09-3.6l0.19,0.05l0.16-0.12c2.97-0.62,5.95-1.24,8.92-1.86c0.5-0.06,0.99-0.12,1.49-0.18
		c1.52,0.28,2.96-0.01,4.41-0.56c0-2.75,0-5.47,0-8.2c0-15.88,0-31.76,0-48.13c-7.91,3.58-15.27,7.31-22.49,11.34
		c-0.37,0.06-0.78,0.03-1.1,0.19c-15.03,7.56-30.03,15.17-45.09,22.68c-1.5,0.75-2.31,1.38-2.3,3.24
		c0.07,17.85,0.02,35.71,0.01,53.56c-0.03,5.22-0.07,10.43-0.1,15.65c-0.28,2.28-0.52,4.56,0.13,7.31c2-1.54,4.63-1.09,5.34-4
		c4.25-17.38,15.19-29.97,29.21-40.26c3.09-2.27,6.4-4.25,9.6-6.36l-0.01,0.01C1047.72,409.63,1048.31,409.53,1048.63,408.9z
		 M870.23,366.75c0,0,0.01-0.05,0.01-0.05c-0.23,0.7-0.46,1.4-0.69,2.09c-0.12,0.47-0.34,0.95-0.34,1.42
		c-0.04,20.41-0.11,40.83-0.04,61.24c0.01,4.74,2.53,7.23,7.52,8.14c6.64,1.17,11.21-2.4,11.25-9.32c0.12-18.32,0.02-36.63,0-54.95
		c0-0.99,0.05-2.01-0.76-2.79c-1.14-3.3-3.47-5.7-6.12-7.78c-3.61-2.83-6.78-2.5-10.18,0.87C870.66,366,870.45,366.37,870.23,366.75
		z M1112.06,508.32c-1.04,1.97-2.15,3.9-3.1,5.91c-4.03,8.5-10.5,15.03-17.15,21.42c-0.86,0.82-1.72,1.63-2.58,2.45
		c-3.81,0.91-6.61,3.74-10.14,5.25c-18.39,7.85-36.63,7.35-54.95-0.28c-4.82-2-10.13-2.95-13.25-7.81
		c-0.78-1.21-1.61-2.81-3.51-1.56c-2.33,1.53-6.76,1.07-6.66,4.88c0.26,10.48-0.74,20.67-4.59,30.48c-0.04,0.1,0.03,0.24,0.05,0.36
		c-2.08,4.5-5.23,8.29-8.12,12.25c-6.14,7.07-13.47,12.53-22.02,16.34c-10.47,3.85-21.21,4.28-32.01,1.94
		c-16.68-3.63-29.61-12.29-36.57-28.48c-1.16-2.71-2.03-5.54-3.01-8.23c-2.97,0.46-5.44,3.15-8.34,1.78
		c-7.85-3.71-15.74-7.32-23.64-10.93c-5.06-2.32-10.07-4.87-15.05-7.41c-1.35-0.69-2.57-0.44-3.96-0.14
		c-6.98,1.52-14.05,2.7-21.16,1.18c-12.49-2.67-22.93-8.84-30.85-19.01c-2.6-3.78-4.57-7.91-6.54-12.03
		c-0.92-4.26-1.85-8.52-2.77-12.78c0.08-1.49,0.23-2.97,0.24-4.46c0.06-9.14,1.99-17.82,6.5-25.84c1.04-1.85,2.16-3.66,3.67-6.22
		c-1.76,0.77-2.68,1.1-3.53,1.56c-20.91,11.12-41.76,22.34-62.73,33.34c-12.25,6.42-24.26,13.29-36.8,19.19
		c-10.84,5.11-15.06,13.77-12.67,24.26c-1.77,0.95-1.07,2.66-1.07,4.01c-0.1,23.62-0.15,47.25-0.16,70.87
		c0,11.95,5.39,20.91,15.74,26.67c30.29,16.86,60.67,33.58,91.01,50.36c46.89,25.93,93.89,51.68,140.6,77.92
		c12.62,7.09,25.3,11.96,40.07,11.16c9.42-0.51,18.3-1.91,26.45-6.93c4.46-2.75,9.16-5.11,13.72-7.68
		c43.63-24.6,87.26-49.21,130.89-73.8c30.58-17.24,61.14-34.5,91.75-51.68c9.78-5.49,15.29-13.82,15.44-24.87
		c0.35-25.37,0.15-50.75,0.12-76.12c0-1.22,0.59-2.85-1.17-3.58c0.94-3.17,0.34-6.16-1.03-9.07c-2.49-5.3-6.55-9.1-11.66-11.72
		c-35.61-18.22-71.24-36.39-106.89-54.53c-1.33-0.68-2.67-1.65-4.56-1.57c0.3,1.76,0.52,3.22,0.8,4.66
		c1.54,8.09,0.42,16.14-0.25,24.21C1115.09,498.81,1113.57,503.56,1112.06,508.32z M972.86,508.22c1.01,0.21,2.06,0.69,3-0.35
		c-14.64-12.47-39.62-11.29-54.83,7.32c-1.96,2.2-4.07,4.19-5.67,6.78c-7.92,12.78-10.21,26.64-7.6,41.2
		c2.1,11.72,10.7,18.04,20.95,22.43c1.41,0.6,2.86,1.98,4.74,1.22c-0.08-0.46-0.06-0.74-0.18-0.93
		c-11.82-19.44-8.27-38.27,2.34-56.77c1.34-2.34,3.64-4.02,4.77-6.54c1.29-1.12,2.58-2.25,3.88-3.37
		C952.47,512.12,961.56,507.28,972.86,508.22z M964.65,448.57c-1.55-3.38-4.59-5.04-7.72-6.53c-16.11-7.67-32.25-15.25-48.33-22.97
		c-2.75-1.32-5.05-0.74-7.42,0.6c-1.7,0.96-1.38,2.45-0.94,3.95c0.08,2.48,0.22,4.96,0.22,7.44c0.02,10.46-5.61,18.65-14.67,21.44
		c-10.06,3.1-20.59-0.42-26.42-8.8c-0.69-1-1.47-1.94-2.21-2.9c-0.7-1.39-0.38-3.15-1.68-4.71c-8.96,4.62-17.88,9.19-26.76,13.83
		c-2.34,1.22-4.15,3.12-5.82,5.14c-3.6,3.19-4.94,9.15-3.13,14.4c3.58-1.65,7.11-1.57,10.74,0.1c7.47,3.44,12.91,11.8,12.81,20.03
		c-0.15,11.28-10.43,17.07-20.28,11.48c-1.22-0.69-2.04-2.27-3.79-2.01c-1.72,14.03,1.24,19.47,13.8,25.2
		c11.58,5.28,23.18,10.51,34.77,15.76c3.98,1.8,7.86,3.87,11.96,5.31c6.72,2.35,13.36-1.39,15.15-8.16
		c2.26-8.52,5.91-16.36,10.99-23.6c13.58-19.38,37.81-29.26,60.08-21.08c0.43,0.16,0.93,0.11,1.97,0.22c0-4.93,0.08-9.63-0.02-14.33
		c-0.16-7.22,0.61-14.45-0.32-21.66C967.87,453.56,967.09,450.76,964.65,448.57z M959.25,525.68c-0.83-0.1-1.58,0.04-2.15,0.73
		c-10.3,6.33-15.29,15.86-16.62,27.6l-0.3-0.11l0.3,0.03c-0.19,1-0.51,1.99-0.03,3c-0.07,0.22-0.14,0.44-0.22,0.66
		c-0.54,1.52-0.53,3.04,0.06,4.55c-0.64,15.56,15.09,25.44,29.16,18.31c15.52-7.87,23.09-32.16,14.82-47.58
		c-5.06-9.44-16.79-12.78-25.15-7.17L959.25,525.68z M919.34,306.01c-4.03,1.56-8.05,3.14-11.49,5.85
		c-4.33,0.45-5.74,3.88-7.31,7.15c-1.09,2.28-0.34,3.65,1.93,4.72c24.15,11.38,48.45,22.49,72.34,34.39
		c13.45,6.7,25.99,8.24,39.8,0.76c21.17-11.46,42.9-21.91,64.38-32.8c3.86-1.96,4.48-3.85,2.34-7.65c-1.44-2.55-3.32-4.68-6.49-5.11
		c-7.68-3.78-15.34-7.63-23.06-11.33c-17.65-8.47-35.28-16.98-53.01-25.26c-8.69-4.06-17.49-3.48-25.97,0.88
		c-8.2,4.21-16.32,8.6-24.47,12.9C938.64,295.61,928.73,300.33,919.34,306.01z M1071.89,451.94c-1.27,0.45-2.61,0.78-3.81,1.38
		c-21.63,10.99-27.38,37.34-22.84,53.83c2.11,11.21,8.64,18.92,18.03,20.55c10.77,1.87,19.65-2.15,26.81-10
		c12.7-13.92,16.1-30.45,12.07-48.41C1098.86,454.7,1085.04,447.17,1071.89,451.94z M815.05,531.96c-0.2-1-0.15-1.43-0.35-1.67
		c-6.77-8.62-8.98-18.7-9.19-29.33c-0.17-8.72,0.06-17.46,0.05-26.18c0-0.82,0.63-1.99-0.69-2.52
		c-9.93,11.76-13.34,35.13-4.07,48.62C804.37,526.09,808.95,529.47,815.05,531.96z M835.86,487.07c-0.38-3.81-2.36-7.11-6.08-9.25
		c-2.19-1.26-4.55-1.45-6.74,0.01c-2.24,1.5-3.39,3.73-3.08,6.41c0.4,3.44,1.85,6.48,4.55,8.74c2.1,1.75,4.5,2.79,7.25,1.53
		C834.72,493.16,835.81,490.63,835.86,487.07z"/>
	<path class="st1" d="M1240.2,542.07c1.76,0.73,1.17,2.36,1.17,3.58c0.04,25.37,0.24,50.75-0.12,76.12
		c-0.15,11.05-5.66,19.38-15.44,24.87c-30.61,17.18-61.17,34.44-91.75,51.68c-43.63,24.6-87.26,49.21-130.89,73.8
		c-4.57,2.57-9.27,4.93-13.72,7.68c-8.15,5.03-17.02,6.42-26.45,6.93c-14.77,0.81-27.45-4.07-40.07-11.16
		c-46.72-26.24-93.71-51.99-140.6-77.92c-30.34-16.78-60.72-33.5-91.01-50.36c-10.35-5.76-15.74-14.71-15.74-26.67
		c0.01-23.62,0.06-47.25,0.16-70.87c0.01-1.35-0.7-3.06,1.07-4.01c3.08,5.68,7.8,9.58,13.4,12.65
		c10.73,5.88,21.37,11.94,32.08,17.87c67.3,37.29,134.72,74.37,201.81,112.04c12.77,7.17,25.81,10.18,40.1,9.65
		c6.5-0.24,13.24-0.47,18.93-3.4c12.8-6.59,25.17-14.01,37.68-21.17c23.2-13.27,46.35-26.63,69.55-39.9
		c18.77-10.73,37.63-21.33,56.39-32.07c26.69-15.29,53.39-30.59,80.51-45.11C1233.37,553.02,1238.01,548.76,1240.2,542.07z"/>
	<path class="st2" d="M1240.2,542.07c-2.18,6.69-6.83,10.95-12.95,14.23c-27.12,14.52-53.81,29.82-80.51,45.11
		c-18.76,10.75-37.62,21.34-56.39,32.07c-23.2,13.26-46.35,26.62-69.55,39.9c-12.51,7.16-24.88,14.58-37.68,21.17
		c-5.69,2.93-12.43,3.16-18.93,3.4c-14.28,0.53-27.33-2.48-40.1-9.65C857,650.64,789.58,613.56,722.28,576.27
		c-10.71-5.93-21.34-11.99-32.08-17.87c-5.6-3.07-10.31-6.96-13.4-12.65c-2.39-10.49,1.83-19.15,12.67-24.26
		c12.53-5.91,24.55-12.77,36.8-19.19c20.97-11,41.82-22.22,62.73-33.34c0.85-0.45,1.77-0.79,3.53-1.56
		c-1.51,2.55-2.63,4.36-3.67,6.22c-4.51,8.02-6.43,16.69-6.5,25.84c-0.01,1.49-0.16,2.98-0.24,4.46c-4.02,0.95-7.24,3.47-11.56,5.54
		c5.26,2.5,9.38,5.63,14.34,7.23c1.98,4.12,3.94,8.25,6.54,12.02c-0.66,1.17-1.94,1.49-2.98,2.11c-6.64,4-13.29,7.98-19.93,11.97
		c-9.31,5.28-18.62,10.56-27.84,15.78c0.78,1.85,1.81,2.09,2.67,2.55c6.58,3.52,13.24,6.91,19.71,10.62
		c3.12,1.78,5.63,2.26,8.77-0.13c5.92-4.5,13.1-7.11,18.74-12.08c5.27,0.98,9.7,3.48,13.37,7.37c-7.7,4.66-15.39,9.31-23.67,14.32
		c4.31,2.24,7.72,4.44,11.65,5.64c0.28,0.39,0.47,0.93,0.85,1.14c10.39,5.87,21.22,10.92,31.35,17.25c1.5,0.94,2.67,0.54,4.1-0.33
		c7.66-4.66,15.38-9.19,23.09-13.77c4.42,1.45,8.05,4.34,12.04,6.58c-4.08,3.74-9.35,5.6-13.83,8.71c-3.3,2.29-7.2,3.71-10.29,6.79
		c3.04,1.87,6.02,3.25,8.47,5.28c5.6,4.66,10.48,4.19,16.2-0.24c5.35-4.14,11.59-7.13,17.44-10.62c4.9,0.45,8.38,3.9,12.55,5.89
		c-0.5,1.62-2.05,2.1-3.26,2.87c-7.28,4.64-14.62,9.2-22.43,14.09c4.31,2.52,8.05,4.86,12.26,6.37c6.45,3.68,13.23,6.9,19.26,11.17
		c6.01,4.25,10.71,4.48,16.55-0.45c5.73-4.84,13.05-7.57,18.97-12.32c5.15-2.97,10.3-5.95,16.05-9.27
		c-8.37-4.53-16.01-8.67-23.66-12.81c-0.08-0.39-0.17-0.79-0.25-1.18c2.42,0.51,4.67-0.37,6.86-1.09c3.04-1,5.91-2.53,9.18-2.76
		c5.32,2.93,10.63,5.87,15.97,8.77c1.25,0.68,2.34,0.19,3.46-0.56c9.01-5.99,18.68-10.88,27.93-16.48
		c4.84-2.93,9.98-5.45,14.27-9.25c5.54-2.17,10.52-5.28,15.81-8.93c-6.95-3.86-13.35-7.43-19.76-11c6.48-3.26,12.75-7.98,20.4-2.87
		c2.29,1.25,4.64,2.41,6.87,3.77c2.58,1.58,4.89,1.81,7.61,0.04c2.91-1.89,6.17-3.25,9.25-4.88c4.05-2.14,8.35-3.88,11.87-6.93
		c0.68-0.29,1.37-0.58,2.05-0.87c6.85-2.92,12.76-7.5,19.3-11c4.3-2.3,8.48-5.17,10.77-9.88c0.86-0.82,1.72-1.63,2.58-2.45
		c0.97,1.07,1.94,2.13,2.96,3.25c4.85-2.08,8.92-5.22,13.35-7.73c7.22-4.1,14.6-7.91,21.42-12.68c5.44-3.09,10.87-6.17,17.06-9.69
		c-10.54-5.34-20.01-10.55-29.99-14.76c0.67-8.06,1.79-16.12,0.25-24.21c-0.27-1.45-0.5-2.9-0.8-4.66c1.89-0.08,3.23,0.9,4.56,1.57
		c35.65,18.14,71.28,36.31,106.89,54.53c5.12,2.62,9.18,6.42,11.66,11.72C1240.54,535.9,1241.14,538.9,1240.2,542.07z M756.77,534.7
		c5.9-2.95,11.71-6.07,17.65-9.93c-5.44-2.91-10.27-5.47-15.07-8.07c-1.06-0.57-2.01-0.69-3.17-0.17
		c-5.64,2.58-11.22,5.27-16.11,9.16c-10.11,4.85-19.9,10.3-30.47,16.1c6.17,3.39,11.38,6.24,16.58,9.11
		c1.04,0.58,1.94,0.15,2.81-0.34C738.26,545.29,747.51,539.99,756.77,534.7z M1136.08,544.97c0.33-0.09,0.65-0.19,0.98-0.28
		c0.46-0.01,0.93-0.03,1.39-0.04c0.08,1.57,1.56,1.41,2.45,1.89c4.63,2.5,9.31,4.93,14.36,7.58c-5.9,4.16-12.2,6.36-17.69,10.69
		c3.22,1.86,6.22,3.32,8.92,5.22c2.66,1.87,4.84,1.64,7.51,0c5.72-3.52,11.69-6.62,17.41-10.13c5.49-3.37,11.53-5.82,16.65-9.83
		c6.34-2.53,11.98-6.33,17.95-9.45c-0.58-1.76-1.96-1.96-3-2.51c-5.51-2.89-10.99-5.83-16.59-8.53c-3.88-1.87-7.33-4.66-11.66-5.58
		c-3.9-3.19-8.76-4.7-12.95-7.36c-1.95-1.24-3.55-1.12-5.47,0.08c-10.48,6.53-21.23,12.59-32.09,18.47
		c-6.84,3.71-13.43,7.9-20.48,12.09c4.22,2.22,8.16,4.09,11.89,6.32c2.03,1.21,3.47,1.01,5.42-0.16
		C1125.98,550.45,1131.07,547.77,1136.08,544.97z M995.26,611.98c-0.72,0.13-1.55,0.07-2.14,0.42c-5.47,3.24-10.9,6.55-16.34,9.86
		c-1.03,0.63-2.24,1.14-2.47,2.72c2.31,2.14,5.56,2.69,8.02,4.59c1.95,1.51,3.74,1.26,5.76-0.17c4.99-3.54,10.39-6.43,15.79-9.3
		c1.15-0.61,2.72-0.89,2.71-2.71c0.65,0.19,1.3,0.39,1.96,0.58c5.53,3.51,11.79,5.79,17.17,10.02c-6.42,4.38-13.23,7.88-19.4,12.8
		c2.99,2.65,6.13,3.92,8.93,5.7c2.51,1.6,4.68,1.54,7.2-0.05c10.54-6.62,21.39-12.69,32.2-18.86c2.36-1.35,5.35-2.13,6.68-4.97
		c6.27-2.23,11.61-6.09,17.59-9.6c-14.87-7.89-29.19-15.44-43.45-23.1c-1.79-0.96-3.09-0.35-4.51,0.46
		c-8.23,4.7-16.53,9.28-24.63,14.2C1002.55,606.86,998.29,608.52,995.26,611.98z M947.66,643.51c-3.91,1.1-6.96,3.77-10.34,5.78
		c-5.27,3.14-10.78,6-15.61,9.98c1,1.54,2.38,1.89,3.55,2.54c10.68,5.89,21.43,11.66,31.99,17.75c2.89,1.67,5.17,1.77,7.91,0.05
		c6.21-3.9,12.54-7.62,18.76-11.52c1.4-0.88,3.45-1.07,3.91-3.15c6.52-1.59,11.55-6.04,17.59-8.88c-0.55-0.49-0.79-0.79-1.11-0.97
		c-12.92-7.06-25.85-14.11-38.78-21.16c-0.95-0.52-1.88-0.68-2.83-0.1C957.6,636.91,952.11,639.4,947.66,643.51z M1059.6,588.52
		c10.56,5.45,21.12,10.91,31.68,16.36c1.79,0.93,3.37,0.24,4.92-0.67c5.91-3.44,11.93-6.7,17.68-10.39
		c2.54-1.63,5.98-2.07,7.46-5.22c3.25,0.01,5.26-2.54,7.78-3.96c2.93-1.67,6.34-2.7,8.65-5.32c-0.69-1.35-1.78-1.79-2.75-2.28
		c-13.9-7.07-27.83-14.09-41.71-21.2c-1.78-0.91-3.14-0.75-4.84,0.25c-12.69,7.46-25.45,14.82-38.18,22.23
		c-1.47,0.85-2.87,1.81-4.77,3.01C1050.4,584.26,1054.91,586.55,1059.6,588.52z"/>
	<path class="st3" d="M943.43,608.17c-3.27,0.23-6.14,1.75-9.18,2.76c-2.19,0.72-4.44,1.6-6.86,1.09c-4.74-0.54-8.29-3.64-12.3-5.76
		c-1.54-0.82-3.03-1.84-4.85-0.91c-5.16,2.65-10.49,5.01-14.9,8.9c-0.47-0.23-0.95-0.47-1.42-0.7c-4.17-1.99-7.66-5.44-12.55-5.89
		c-0.76-1.59-2.38-2.17-3.74-2.88c-4.69-2.46-9.49-4.71-14.25-7.04c-3.99-2.24-7.62-5.13-12.04-6.58
		c-10.75-6.73-22.15-12.24-33.49-17.85c-0.73-0.36-1.7-0.25-2.55-0.37c-3.08-3.31-7.03-5-11.32-6.04c-3.67-3.89-8.1-6.38-13.37-7.37
		c-0.57-2.06-2.64-2.44-4.05-3.54c-1.38-1.08-3.01-2.05-2.87-4.03c0.14-2-1.1-2.38-2.52-3.03c-4.25-1.95-8.42-4.07-12.62-6.13
		c6.65-3.99,13.3-7.96,19.93-11.97c1.04-0.63,2.32-0.95,2.98-2.11c7.92,10.18,18.35,16.34,30.85,19.01
		c7.11,1.52,14.18,0.34,21.16-1.18c1.39-0.3,2.61-0.55,3.96,0.14c4.98,2.54,9.99,5.09,15.05,7.41c7.89,3.61,15.79,7.22,23.64,10.93
		c2.9,1.37,5.36-1.32,8.34-1.78c0.98,2.7,1.85,5.53,3.01,8.23c6.96,16.18,19.89,24.85,36.57,28.48c10.79,2.35,21.53,1.91,32.01-1.94
		c-0.7,1.93-2.65,2-4.14,2.71C955.9,603.63,949.29,604.95,943.43,608.17z"/>
	<path class="st4" d="M967.65,456.73c0.93,7.21,0.16,14.44,0.32,21.66c0.1,4.69,0.02,9.39,0.02,14.33
		c-1.04-0.11-1.54-0.06-1.97-0.22c-22.27-8.18-46.5,1.71-60.08,21.08c-5.08,7.25-8.73,15.08-10.99,23.6
		c-1.79,6.76-8.43,10.51-15.15,8.16c-4.1-1.44-7.99-3.51-11.96-5.31c-11.59-5.25-23.2-10.48-34.77-15.76
		c-12.56-5.73-15.53-11.17-13.8-25.2c1.75-0.26,2.56,1.32,3.79,2.01c9.85,5.58,20.13-0.21,20.28-11.48
		c0.11-8.23-5.34-16.59-12.81-20.03c-3.63-1.67-7.17-1.76-10.74-0.1c-1.81-5.24-0.47-11.21,3.13-14.4c1.13,0.24,2.25,0.48,3.38,0.71
		c6.23,3.67,13.01,6.16,19.53,9.22c10.49,4.93,21.66,8.68,31.48,14.67c5.91,3.61,10.62,4.02,16.39,1.68
		c0.12-0.05,0.24-0.07,0.36-0.11c0.72,0.59,1.43,1.18,2.15,1.78c-0.06,2.26,1.54,3.9,2.21,5.88c1.09,3.23,2.69,3.32,5.61,1.75
		C925.17,479.24,946.43,468.01,967.65,456.73z M859.12,514.06c-1.45-0.05-3.06-0.85-4.29,0.42c-2.35,2.4-4.11,0.9-5.56-0.91
		c-1.23-1.54-2.16-3.36-3.01-5.15c-1.12-2.37-2.71-3.74-5.3-2.55c-2.9,1.34-1.92,3.73-0.99,5.77c1.74,3.8,4.36,7.02,7.7,9.5
		c5.86,4.36,12.13,2.59,14.54-3.98c1.4,1.05,2.73,2.16,4.18,3.11c4.22,2.76,8.93,3.94,13.43,1.43c4.64-2.58,6.81-6.98,6.75-12.51
		c-0.08-7.6-3.53-13.45-9.15-18.05c-5.16-4.22-11.17-4.45-15.97-1.2c-4.31,2.93-6.46,9.6-5.13,15.4c0.68,2.96,1.93,5.65,3.28,8.32
		C859.44,513.79,859.28,513.92,859.12,514.06z"/>
	<path class="st5" d="M968.54,430.8c0,0-0.3-0.16-0.3-0.16c-0.31-0.73-0.87-0.92-1.6-0.76c0,0,0.03,0.01,0.03,0.01
		c-2.21-2.36-4.73-4.07-8.15-3.94c-0.51-0.24-1.01-0.48-1.52-0.72c-1.44-2.95-4.07-3.45-6.98-3.36c0,0-0.05-0.02-0.05-0.02
		c-0.14-1.06-0.84-1.03-1.63-0.83c-0.18,0.03-0.3-0.04-0.36-0.21c-0.25-0.46-0.63-0.66-1.15-0.55c-0.17,0.04-0.29-0.02-0.35-0.19
		c0-1.25-0.98-1.62-1.86-2.09c-5.26-2.76-10.9-4.68-15.93-8.02c-1.77-1.17-4.37-2.47-7.03-1.86c0,0,0.02,0.01,0.02,0.01
		c0.1-1.39-0.99-1.56-1.93-1.83c-4.54-1.28-5.68-4.16-5.68-8.85c-0.01-15.14,1.02-30.31-0.59-45.44c-0.2-1.89,0.1-3.72,0.96-5.43
		c0.24,0.09,0.47,0.18,0.71,0.27c0.42,2.29,2.16,1.84,3.71,1.81c0,0-0.02-0.01-0.02-0.01c2.31,3.33,6.2,4.21,9.51,5.84
		c9.43,4.63,19.13,8.73,28.56,13.37c7.56,3.72,14.96,7.77,22.84,10.79c1.83,0.7,2.05,1.89,2.05,3.48
		c-0.01,18.62-0.02,37.24,0.01,55.85c0,1.62-0.2,2.99-1.94,3.61c0,0-0.16-0.28-0.16-0.28c0.82-1.91,0.37-3.06-1.88-3.13
		c0.4-2.26-0.66-3.2-2.83-3.15c-0.27-0.22-0.54-0.43-0.8-0.65c-0.11-2.05-1.34-2.5-3.11-2.15l0.17-0.2c0,0-0.16,0.21-0.16,0.2
		c-0.17-0.81-0.73-0.97-1.45-0.85c0,0,0.03,0.01,0.03,0.01C969.45,430.88,969.07,430.68,968.54,430.8z"/>
	<path class="st4" d="M1074.85,313.32c3.16,0.43,5.05,2.56,6.49,5.11c2.14,3.81,1.52,5.69-2.34,7.65
		c-21.49,10.89-43.21,21.33-64.38,32.8c-13.82,7.48-26.35,5.94-39.8-0.76c-23.89-11.9-48.19-23.01-72.34-34.39
		c-2.27-1.07-3.03-2.44-1.93-4.72c1.57-3.27,2.98-6.7,7.31-7.15c5.22,2.38,10.45,4.72,15.65,7.14c19.45,9.07,38.99,17.96,58.3,27.32
		c10.47,5.07,20.29,4.49,30.4-0.8c18.02-9.43,36.19-18.6,54.29-27.89c2.07-1.06,4.43-1.65,6.06-3.48
		C1073.31,313.87,1074.08,313.6,1074.85,313.32z"/>
	<path class="st6" d="M1051.4,357.64c7.21-4.03,14.57-7.76,22.49-11.34c0,16.37,0,32.25,0,48.13c-0.45,0.25-0.9,0.49-1.35,0.74
		c-1.33,0.27-2.7,0.41-3.99,0.82c-8.94,2.82-16.71,7.93-24.62,12.75c-1.39,0.27-2.48,1.11-3.62,1.88
		c-14.28,9.71-25.37,22.32-34.12,37.12c-1.05,1.77-1.48,3.99-3.38,5.22c0.03-5.22,0.07-10.43,0.1-15.65
		c1.97,0.54,1.24-1.01,1.27-1.77c0.1-2.23-0.09-4.46,1.16-6.53c3.27-5.44,6.18-11.12,9.7-16.39c11.39-17.08,22.57-34.31,34.73-50.87
		C1050.59,360.63,1052.36,359.58,1051.4,357.64z"/>
	<path class="st7" d="M857.17,440.81c0.74,0.97,1.52,1.9,2.21,2.9c5.82,8.38,16.36,11.9,26.42,8.8
		c9.07-2.79,14.69-10.98,14.67-21.44c0-2.48-0.14-4.96-0.22-7.44c4.07-1.89,7.76-0.44,11.42,1.32c13.53,6.51,26.89,13.36,40.74,19.2
		c-0.02,1.45-1.25,1.75-2.21,2.21c-19.98,9.5-39.06,20.78-59.25,29.86c-2.16-0.08-3.5-1.81-5.3-2.63
		c-15.36-7.09-30.7-14.23-46.07-21.3c-1.01-0.47-1.71-0.97-1.79-2.11c3.18-1.72,6.28-3.62,9.56-5.12
		C850.58,443.56,853.35,440.95,857.17,440.81z"/>
	<path class="st4" d="M1113.97,441.67c0.4,2.39,2.98,4.33,1.6,7.11c-1.67,0.54-2.4-0.71-3.2-1.55c-19.21-20.04-48.17-14-63.86,3.35
		c-13.89,15.36-20.73,33.32-19.5,54.14c0.35,5.88,1.58,11.6,3.49,17.19c1.72,5.03,0.36,9.16-3.3,10.56
		c-4.6,1.76-9.22-0.32-10.95-5.52c-4.23-12.7-5.56-25.8-4.58-39.15c0.42-5.75,1.42-11.38,3.41-16.82c0.27-0.73,0.65-1.35,1.46-1.58
		c3.55,0.26,5.79,2.01,5.94,6.77c10.23-24.13,19.06-34.29,38.58-43.07c14.12-6.36,28.36-6.65,42.11,1.71
		c2.74,1.67,4.83,4.26,7.89,5.43c0,0-0.04-0.03-0.04-0.03C1112.99,440.91,1113.31,441.4,1113.97,441.67z"/>
	<path class="st8" d="M1071.89,451.94c13.15-4.77,26.97,2.76,30.26,17.36c4.04,17.95,0.64,34.49-12.07,48.41
		c-7.16,7.85-16.04,11.87-26.81,10c-9.39-1.63-15.92-9.34-18.03-20.55c1.02-1.36,2-0.26,2.96,0.08c3.04,1.09,6.02,2.25,9.38,2.01
		c14.31-1.03,27.39-14.99,27.69-29.42c0.13-6.12-2.26-11.28-5.28-16.31l0.03-0.03c0.47,0.14,1.02,0.17,1.4,0.44
		c6.09,4.28,8.04,10.79,9.04,17.62c0.46,3.17,0.08,6.47,0.08,9.71c1.8-1.98,2.98-4.01,4.12-6.06c7.26-13.04-2.54-33.61-19.52-32.3
		C1074.04,452.99,1072.55,453.62,1071.89,451.94z"/>
	<path class="st3" d="M1089.23,538.1c-2.29,4.7-6.46,7.58-10.77,9.88c-6.54,3.49-12.45,8.08-19.3,11c-0.68,0.29-1.37,0.58-2.05,0.87
		c-1.58-0.36-2.92,0.48-4.32,0.92c-10.23,3.23-20.63,5.73-31.28,7.08c-7.65-5.11-13.93-0.4-20.4,2.87c-1.63-0.46-3.1-1.56-4.92-1.28
		c-0.02-0.12-0.09-0.27-0.05-0.37c3.85-9.82,4.85-20.01,4.59-30.48c-0.09-3.81,4.34-3.35,6.66-4.88c1.9-1.25,2.73,0.35,3.51,1.56
		c3.12,4.85,8.44,5.8,13.25,7.81c18.31,7.62,36.56,8.13,54.95,0.28C1082.62,541.85,1085.42,539.02,1089.23,538.1z"/>
	<path class="st9" d="M1072.54,314.15c-1.64,1.83-3.99,2.42-6.06,3.48c-18.1,9.29-36.26,18.46-54.29,27.89
		c-10.11,5.29-19.93,5.87-30.4,0.8c-19.31-9.35-38.85-18.25-58.3-27.32c-5.2-2.42-10.43-4.76-15.65-7.14
		c3.44-2.72,7.46-4.3,11.49-5.86c1.13,2.27,3.02,2.57,5.23,2.02c0.57,3.24,3.64,3.06,5.75,4.07c18.87,9.01,37.73,18.02,56.7,26.82
		c5.77,2.68,11.8,3.74,17.96,0.54c13.47-6.99,27.03-13.81,40.52-20.76c4.49-2.31,8.88-4.8,13.33-7.22c-1.07-2.06-3.72-1.6-4.38-3.64
		C1060.77,309.09,1065.38,315.26,1072.54,314.15z"/>
	<path class="st10" d="M1071.89,451.94c0.66,1.68,2.16,1.05,3.24,0.96c16.98-1.31,26.78,19.27,19.52,32.3
		c-1.14,2.05-2.32,4.08-4.12,6.06c0-3.24,0.38-6.54-0.08-9.71c-1-6.83-2.95-13.34-9.04-17.62c-0.38-0.27-0.93-0.3-1.4-0.44
		c-0.25-0.25-0.5-0.49-0.75-0.74c-0.27-0.19-0.53-0.38-0.8-0.56c-0.06,0.1-0.13,0.19-0.19,0.29c0.33,0.1,0.65,0.19,0.98,0.29
		c0.25,0.25,0.49,0.5,0.74,0.76c3.03,5.02,5.41,10.19,5.28,16.31c-0.31,14.43-13.38,28.39-27.69,29.42
		c-3.36,0.24-6.34-0.92-9.38-2.01c-0.96-0.34-1.94-1.44-2.96-0.08c-4.53-16.49,1.21-42.84,22.84-53.83
		C1069.27,452.72,1070.61,452.39,1071.89,451.94z M1074.27,480.05c0.07-6.05-2.03-9.96-6.08-11.3c-3.94-1.31-8.63,0.54-11.96,4.95
		c-4.29,5.68-6.49,12.04-5.33,19.23c0.55,3.43,1.79,6.64,5.46,7.84c3.66,1.2,6.93,0.02,9.6-2.57
		C1071.07,493.25,1074.18,487.32,1074.27,480.05z"/>
	<path class="st11" d="M940.37,522.58c-1.13,2.52-3.43,4.21-4.77,6.54c-10.6,18.5-14.16,37.33-2.34,56.77
		c0.12,0.19,0.09,0.47,0.18,0.93c-1.88,0.76-3.33-0.62-4.74-1.22c-10.25-4.39-18.85-10.71-20.95-22.43
		c-2.61-14.55-0.32-28.41,7.6-41.2c1.6-2.59,3.71-4.58,5.67-6.78c1.38,0.41,2.46-0.53,3.68-0.81c0.14,2.17,2.12,2.21,3.46,2.83
		C932.2,519.09,936.3,520.8,940.37,522.58z"/>
	<path class="st2" d="M1051.4,357.64c0.96,1.94-0.8,2.99-1.62,4.1c-12.17,16.56-23.34,33.79-34.73,50.87
		c-3.52,5.27-6.43,10.95-9.7,16.39c-1.24,2.07-1.06,4.3-1.16,6.53c-0.03,0.76,0.69,2.31-1.27,1.77c0.01-17.85,0.06-35.71-0.01-53.56
		c-0.01-1.86,0.8-2.49,2.3-3.24c15.06-7.51,30.06-15.12,45.09-22.68C1050.61,357.67,1051.03,357.7,1051.4,357.64z"/>
	<path class="st8" d="M959.13,525.69c8.37-5.61,20.09-2.27,25.15,7.17c8.27,15.42,0.7,39.71-14.82,47.58
		c-14.07,7.13-29.8-2.75-29.16-18.31c4.08,2.09,8.89,4.24,12.91,3.6c8.39-1.35,14.44-6.82,17.31-15.22
		c1.99-5.84,0.27-10.93-3.02-15.74c0,0,0.01-0.01,0.01-0.01c0.59,0.11,1.42,0.02,1.75,0.38c2.87,3.16,5.25,6.68,5.72,11.03
		c0.29,2.72,0.05,5.49,0.05,8.25c1.98-1.73,3.32-3.61,4.52-5.59c1.64-2.7,2.66-5.46,1.85-8.83
		C978.8,529.18,971.15,524.18,959.13,525.69z"/>
	<path class="st10" d="M959.13,525.69c12.02-1.51,19.67,3.49,22.26,14.3c0.81,3.37-0.21,6.12-1.85,8.83
		c-1.19,1.97-2.54,3.85-4.52,5.59c0-2.75,0.24-5.53-0.05-8.25c-0.47-4.35-2.85-7.87-5.72-11.03c-0.33-0.36-1.15-0.26-1.75-0.38
		c-0.03-0.09-0.05-0.2-0.11-0.27c-0.04-0.05-0.14-0.04-0.21-0.06c0.1,0.11,0.2,0.23,0.3,0.34c3.29,4.81,5.01,9.91,3.02,15.74
		c-2.86,8.4-8.91,13.87-17.31,15.22c-4.01,0.65-8.82-1.51-12.91-3.6c-0.59-1.51-0.61-3.02-0.06-4.54c-0.02-0.25,0.05-0.47,0.22-0.66
		c-0.48-1-0.16-2,0.03-3c0,0,0,0.08,0,0.08c1.33-11.73,6.32-21.27,16.62-27.6c0.77-0.09,1.62,0.08,2.15-0.73L959.13,525.69z
		 M946.75,552.61c-0.07,5.75,3.12,9.4,7.15,8.38c7-1.77,12.43-12.9,9.5-19.46c-2.24-5.01-6.86-5.94-10.84-2.13
		C948.76,543.04,947.18,547.67,946.75,552.61z"/>
	<path class="st9" d="M1113.05,440.23c-3.06-1.18-5.15-3.76-7.89-5.43c-13.75-8.36-27.99-8.07-42.11-1.71
		c-19.52,8.79-28.35,18.95-38.58,43.07c-0.15-4.76-2.39-6.51-5.94-6.77c0.28-4.56,2.12-8.55,4.49-12.34
		c0.66-0.01,1.12-0.24,1.49-0.87c9.05-15.24,23-24.47,38.82-31.26c11.3-4.85,22.66-5.14,33.94,0.36c2.21,1.08,4.24,2.66,6.8,2.96
		c0,0-0.08-0.06-0.07-0.06c0.11,0.95,0.96,1.15,1.61,1.56c0,0-0.13-0.05-0.13-0.05c0.52,0.53,1.05,1.05,1.57,1.58
		c0,0-0.08-0.05-0.08-0.05c0.28,0.26,0.56,0.52,0.84,0.79c0,0-0.09-0.02-0.09-0.02c0.21,0.12,0.42,0.24,0.64,0.36
		c0.17,0.19,0.34,0.38,0.51,0.57c0.13,0.09,0.2,0.2,0.21,0.36C1111.13,435.18,1112.47,437.49,1113.05,440.23z"/>
	<path class="st8" d="M869.55,368.79c0.23-0.7,0.46-1.4,0.69-2.09c0,0-0.01,0.04-0.01,0.04c0.22-0.37,0.44-0.74,0.66-1.11
		c3.4,1.18,5.51,4.07,7.96,6.39c2.86,2.72,5.38,3.15,8.34,0.52c0.8,0.78,0.75,1.8,0.76,2.79c0.02,18.32,0.12,36.63,0,54.95
		c-0.04,6.92-4.61,10.49-11.25,9.32c0.03-20.24,0.04-40.49,0.14-60.73c0.01-2.15-0.56-3.5-2.59-4.4
		C871.81,373.38,869.65,371.89,869.55,368.79z"/>
	<path class="st12" d="M943.43,608.17c5.86-3.21,12.47-4.54,18.46-7.43c1.49-0.72,3.44-0.78,4.14-2.71
		c8.56-3.81,15.88-9.27,22.02-16.33c5.3,3.69,11.39,5.88,17,8.96c-4.29,3.8-9.43,6.32-14.27,9.25c-9.25,5.6-18.91,10.49-27.93,16.48
		c-1.12,0.75-2.21,1.24-3.46,0.56C954.06,614.03,948.75,611.09,943.43,608.17z"/>
	<path class="st7" d="M967.65,456.73c-21.22,11.28-42.48,22.51-63.63,33.92c-2.92,1.57-4.51,1.48-5.61-1.75
		c-0.67-1.98-2.27-3.62-2.21-5.88c0.43-0.43,0.78-1.03,1.3-1.26c20.25-9.13,39.52-20.17,59.29-30.23c1.72-0.88,3.77-1.4,4.71-3.4
		c1.05,0.14,2.1,0.29,3.15,0.43C967.09,450.76,967.87,453.56,967.65,456.73z"/>
	<path class="st2" d="M1072.54,314.15c-7.16,1.11-11.77-5.06-18.1-6.32c-1.77-0.85-3.53-1.69-5.3-2.54
		c-0.07-0.39-0.25-0.57-0.65-0.33c-0.3-0.13-0.6-0.27-0.9-0.4c-0.07-0.37-0.23-0.53-0.58-0.25c-0.33-0.16-0.65-0.32-0.98-0.48
		c-0.02-0.39-0.17-0.55-0.53-0.27c-14.69-7.17-29.47-14.16-44.03-21.57c-9.93-5.06-19.37-5.69-29.01,0.6
		c-4.16,2.71-8.83,4.65-13.19,7.08c-11.44,6.37-23.46,11.63-34.71,18.36c-2.21,0.54-4.1,0.25-5.23-2.02
		c9.39-5.67,19.3-10.39,28.99-15.51c8.16-4.3,16.27-8.68,24.47-12.9c8.48-4.36,17.28-4.94,25.97-0.88
		c17.73,8.29,35.37,16.79,53.01,25.26c7.72,3.71,15.38,7.55,23.06,11.33C1074.08,313.6,1073.31,313.87,1072.54,314.15z"/>
	<path class="st10" d="M869.55,368.79c0.1,3.1,2.25,4.59,4.69,5.67c2.03,0.9,2.6,2.25,2.59,4.4c-0.1,20.24-0.11,40.49-0.14,60.73
		c-4.99-0.92-7.51-3.41-7.52-8.14c-0.06-20.41,0-40.83,0.04-61.24C869.21,369.74,869.43,369.27,869.55,368.79z"/>
	<path class="st11" d="M815.05,531.96c-6.11-2.49-10.68-5.87-14.26-11.08c-9.27-13.49-5.86-36.86,4.07-48.62
		c1.33,0.52,0.69,1.7,0.69,2.52c0.02,8.73-0.22,17.46-0.05,26.18c0.21,10.63,2.42,20.71,9.19,29.33
		C814.9,530.54,814.86,530.96,815.05,531.96z"/>
	<path class="st3" d="M940.37,522.58c-4.07-1.78-8.18-3.49-12.2-5.36c-1.34-0.62-3.32-0.66-3.46-2.83c0.33-0.35,0.63-0.74,1.01-1.03
		c7.05-5.58,15.07-8.52,23.9-10.47c9.01-1.99,15.82,2.28,23.25,5.35c-11.3-0.94-20.39,3.89-28.61,10.98
		C942.96,520.33,941.67,521.45,940.37,522.58z"/>
	<path class="st2" d="M1104.07,428.24c-2.56-0.3-4.59-1.88-6.8-2.96c-11.28-5.5-22.65-5.21-33.94-0.36
		c-15.82,6.79-29.77,16.02-38.82,31.26c-0.37,0.63-0.83,0.86-1.49,0.87c3.81-11.62,11.06-20.75,20.66-28.08
		c11.02-8.4,23.39-12.69,37.37-11.49c7.64,0.65,14.51,3.44,20.64,8.04C1102.66,426.26,1103.89,426.8,1104.07,428.24z"/>
	<path class="st1" d="M1116.6,494.05c9.98,4.21,19.45,9.42,29.99,14.76c-6.19,3.52-11.63,6.6-17.06,9.69
		c-0.23-1.01-1.17-1.21-1.9-1.61c-5.18-2.87-10.38-5.71-15.57-8.56C1113.57,503.56,1115.09,498.81,1116.6,494.05z"/>
	<path class="st12" d="M1112.06,508.32c5.19,2.85,10.39,5.69,15.57,8.56c0.73,0.4,1.67,0.6,1.9,1.61
		c-6.82,4.77-14.2,8.58-21.42,12.68c-4.43,2.51-8.5,5.65-13.35,7.73c-1.01-1.11-1.98-2.18-2.96-3.25
		c6.65-6.4,13.12-12.92,17.15-21.42C1109.91,512.22,1111.02,510.29,1112.06,508.32z"/>
	<path class="st1" d="M1005.05,590.65c-5.62-3.09-11.7-5.28-17-8.96c2.9-3.96,6.04-7.76,8.13-12.25c1.83-0.28,3.29,0.83,4.92,1.29
		c6.41,3.57,12.82,7.13,19.76,11C1015.58,585.37,1010.59,588.48,1005.05,590.65z"/>
	<path class="st2" d="M964.65,448.57c-1.05-0.14-2.1-0.29-3.15-0.43c-2.65-2.19-6.17-2.42-9.09-3.99
		c-13.85-5.83-27.21-12.68-40.74-19.2c-3.66-1.76-7.34-3.2-11.42-1.32c-0.44-1.5-0.77-2.99,0.94-3.95c2.37-1.34,4.67-1.92,7.42-0.6
		c16.08,7.73,32.22,15.31,48.33,22.97C960.06,443.53,963.1,445.19,964.65,448.57z"/>
	<path class="st2" d="M982.61,378.73c3.59,0.65,4.44,2.81,4.41,6.35c-0.15,20.65-0.03,41.31-0.01,61.96
		c-1.64,0.19-3.28,0.33-4.86-0.34c-0.09-0.33-0.18-0.65-0.27-0.98c0.96-0.9,0.67-2.08,0.68-3.17c0.17-19.92,0.33-39.84,0.46-59.76
		C983.03,381.43,982.75,380.08,982.61,378.73z"/>
	<path class="st2" d="M835.86,487.07c-0.05,3.56-1.14,6.09-4.1,7.44c-2.74,1.26-5.15,0.22-7.25-1.53c-2.7-2.25-4.15-5.29-4.55-8.74
		c-0.31-2.68,0.83-4.91,3.08-6.41c2.19-1.46,4.55-1.27,6.74-0.01C833.49,479.96,835.47,483.26,835.86,487.07z"/>
	<path class="st3" d="M1002.82,452.96c1.9-1.23,2.33-3.45,3.38-5.22c8.75-14.8,19.84-27.41,34.12-37.12
		c1.14-0.77,2.22-1.61,3.62-1.88c0.81,1.18,2.12,0.61,3.18,0.91c-3.21,2.11-6.51,4.09-9.6,6.36c-14.02,10.3-24.96,22.88-29.21,40.26
		c-0.71,2.91-3.34,2.46-5.34,4C1002.29,457.52,1002.54,455.24,1002.82,452.96z"/>
	<path class="st3" d="M982.61,378.73c0.14,1.35,0.42,2.71,0.41,4.06c-0.13,19.92-0.29,39.84-0.46,59.76
		c-0.01,1.08,0.28,2.27-0.68,3.17c-1.13-1.16-1.42-2.72-2.01-4.14c1.74-0.62,1.94-1.99,1.94-3.61c-0.03-18.62-0.02-37.24-0.01-55.85
		c0-1.59-0.22-2.78-2.05-3.48c-7.88-3.02-15.28-7.06-22.84-10.79c-9.43-4.64-19.13-8.73-28.56-13.37c-3.31-1.62-7.2-2.5-9.51-5.84
		c9.45,3.61,18.28,8.57,27.46,12.77c11.46,5.25,22.67,11.03,34.29,15.95C981.27,377.65,982.37,377.64,982.61,378.73z"/>
	<path class="st2" d="M972.86,508.22c-7.43-3.07-14.24-7.34-23.25-5.35c-8.83,1.95-16.84,4.89-23.9,10.47
		c-0.37,0.3-0.67,0.69-1.01,1.03c-1.22,0.28-2.3,1.22-3.68,0.81c15.21-18.61,40.19-19.79,54.83-7.32
		C974.92,508.91,973.87,508.44,972.86,508.22z"/>
	<path class="st2" d="M857.17,440.81c-3.82,0.14-6.59,2.75-9.83,4.23c-3.28,1.5-6.38,3.4-9.56,5.12c-3.6,2.34-7.62,3.83-11.49,5.62
		c-1.13-0.24-2.25-0.47-3.38-0.71c1.67-2.02,3.48-3.92,5.82-5.14c8.88-4.63,17.79-9.2,26.76-13.83
		C856.79,437.66,856.46,439.42,857.17,440.81z"/>
	<path class="st5" d="M1047.11,409.64c-1.06-0.29-2.37,0.27-3.18-0.91c7.91-4.82,15.68-9.93,24.62-12.75
		c1.29-0.41,2.66-0.55,3.99-0.81c1.39,2.06,0.62,4.23,0.54,6.12c-1.11,1.28-3.11,0.04-3.6,1.9c-0.5,0.06-0.99,0.12-1.49,0.18
		c-3.3-0.95-6.29-0.38-8.92,1.86l-0.16,0.12c0,0-0.19-0.05-0.19-0.05c-3.78,0.03-7.33,0.73-10.09,3.6c0,0,0.02-0.01,0.02-0.01
		C1047.92,408.74,1047.36,408.88,1047.11,409.64L1047.11,409.64z"/>
	<path class="st3" d="M982.15,446.7c1.58,0.67,3.22,0.53,4.86,0.34c0.08,7.07,0.08,14.14,0.28,21.2c0.09,3.22-2.54,2.7-3.99,3.79
		c-0.38-0.1-0.76-0.19-1.15-0.29C982.15,463.4,982.15,455.05,982.15,446.7z"/>
	<path class="st2" d="M887.18,372.54c-2.96,2.63-5.48,2.2-8.34-0.52c-2.44-2.32-4.55-5.21-7.96-6.39c3.4-3.37,6.57-3.7,10.18-0.87
		C883.72,366.84,886.04,369.24,887.18,372.54z"/>
	<path class="st3" d="M914.43,346.57c-0.86,1.72-1.16,3.54-0.96,5.43c1.61,15.12,0.57,30.29,0.59,45.44c0,4.69,1.14,7.57,5.68,8.85
		c0.93,0.26,2.03,0.43,1.93,1.83c-0.12,0-0.26,0.02-0.37-0.02c-8.66-3.07-8.62-3.07-8.66-12.22c-0.08-15.73-0.24-31.46-0.24-47.19
		C912.39,347.93,910.89,344.43,914.43,346.57z"/>
	<path class="st1" d="M784.91,516.69c-4.96-1.6-9.08-4.74-14.34-7.23c4.32-2.07,7.54-4.59,11.56-5.54
		C783.06,508.18,783.98,512.43,784.91,516.69z"/>
	<path class="st3" d="M921.65,408.1c2.66-0.61,5.27,0.69,7.03,1.86c5.03,3.34,10.68,5.26,15.93,8.02c0.88,0.46,1.86,0.84,1.86,2.09
		C937.95,416.61,929.81,412.33,921.65,408.1z"/>
	<path class="st3" d="M1048.62,408.91c2.76-2.88,6.31-3.57,10.09-3.6C1055.34,406.51,1051.98,407.71,1048.62,408.91z"/>
	<path class="st3" d="M958.51,425.95c3.41-0.13,5.94,1.58,8.15,3.94C963.72,429.05,961.04,427.65,958.51,425.95z"/>
	<path class="st3" d="M1069.47,403.19c0.49-1.86,2.49-0.62,3.6-1.9c0.07-1.89,0.85-4.06-0.54-6.12c0.45-0.25,0.9-0.49,1.35-0.74
		c0,2.73,0,5.45,0,8.2C1072.43,403.19,1070.99,403.47,1069.47,403.19z"/>
	<path class="st3" d="M950.02,421.88c2.91-0.09,5.53,0.41,6.98,3.36C954.51,424.45,952.19,423.31,950.02,421.88z"/>
	<path class="st3" d="M1059.06,405.24c2.64-2.24,5.62-2.81,8.92-1.86C1065,404,1062.03,404.62,1059.06,405.24z"/>
	<path class="st3" d="M977.83,438.15c2.25,0.07,2.7,1.22,1.88,3.14C979.08,440.24,978.45,439.2,977.83,438.15z"/>
	<path class="st3" d="M975,435.01c2.17-0.05,3.24,0.89,2.84,3.15C976.89,437.11,975.94,436.06,975,435.01z"/>
	<path class="st3" d="M971.08,432.21c1.77-0.35,3,0.1,3.11,2.15C972.96,433.92,971.93,433.2,971.08,432.21z"/>
	<path class="st3" d="M918.85,348.65c-1.55,0.03-3.3,0.47-3.71-1.81C916.5,347.19,917.84,347.58,918.85,348.65z"/>
	<path class="st2" d="M1105.6,429.75c-0.64-0.41-1.49-0.61-1.61-1.56C1104.78,428.45,1105.68,428.59,1105.6,429.75z"/>
	<path class="st8" d="M959.25,525.68c-0.53,0.8-1.38,0.64-2.15,0.73C957.67,525.71,958.42,525.58,959.25,525.68z"/>
	<path class="st2" d="M1107.04,431.27c-0.52-0.53-1.05-1.06-1.57-1.58C1106.59,429.63,1106.93,430.33,1107.04,431.27z"/>
	<path class="st9" d="M1113.97,441.67c-0.66-0.26-0.98-0.75-0.96-1.46C1113.33,440.69,1113.65,441.18,1113.97,441.67z"/>
	<path class="st3" d="M969.64,431.36c0.72-0.12,1.28,0.04,1.45,0.85C970.47,432.17,969.94,431.96,969.64,431.36z"/>
	<path class="st3" d="M1047.1,409.64c0.26-0.76,0.82-0.91,1.53-0.74C1048.31,409.53,1047.72,409.63,1047.1,409.64z"/>
	<path class="st3" d="M966.64,429.88c0.73-0.16,1.3,0.03,1.6,0.76C967.58,430.65,967,430.49,966.64,429.88z"/>
	<path class="st3" d="M948.34,421.02c0.78-0.19,1.48-0.23,1.63,0.83C949.43,421.57,948.89,421.3,948.34,421.02z"/>
	<path class="st2" d="M870.23,366.75c0,0,0.01-0.04,0.01-0.04S870.23,366.75,870.23,366.75z"/>
	<path class="st2" d="M1107.8,432.01c-0.28-0.26-0.56-0.52-0.84-0.79C1107.57,431.14,1107.77,431.48,1107.8,432.01z"/>
	<path class="st2" d="M1109.08,433.28c-0.01-0.15-0.08-0.27-0.21-0.36C1109.04,432.99,1109.11,433.11,1109.08,433.28z"/>
	<path class="st2" d="M1108.35,432.35c-0.21-0.12-0.42-0.24-0.64-0.36C1107.93,432.11,1108.14,432.23,1108.35,432.35z"/>
	<polygon class="st8" points="940.48,554 940.48,553.92 940.18,553.9 	"/>
	<path class="st3" d="M946.83,420.26c0.53-0.11,0.9,0.09,1.15,0.55C947.59,420.63,947.21,420.44,946.83,420.26z"/>
	<path class="st8" d="M940.45,556.92c-0.16,0.19-0.24,0.41-0.22,0.66C940.31,557.36,940.38,557.14,940.45,556.92z"/>
	<path class="st3" d="M968.54,430.8c0.54-0.12,0.91,0.09,1.14,0.58C969.29,431.18,968.91,430.99,968.54,430.8z"/>
	<path class="st4" d="M1059.6,588.52c-4.68-1.96-9.19-4.25-14.07-7.19c1.89-1.2,3.3-2.15,4.77-3.01
		c12.73-7.41,25.48-14.76,38.18-22.23c1.7-1,3.05-1.16,4.84-0.25c13.88,7.11,27.81,14.13,41.71,21.2c0.98,0.5,2.06,0.93,2.75,2.28
		c-2.31,2.61-5.72,3.65-8.65,5.32c-2.51,1.43-4.52,3.97-7.78,3.96c-0.23-0.28-0.4-0.67-0.69-0.83c-9.84-5.38-19.77-10.57-30-15.16
		c-1.11-0.5-2.11-0.58-3.19,0.04C1078.15,577.9,1068.42,582.4,1059.6,588.52z"/>
	<path class="st12" d="M987.83,664.94c-0.46,2.08-2.51,2.27-3.91,3.15c-6.22,3.9-12.54,7.62-18.76,11.52
		c-2.74,1.72-5.02,1.62-7.91-0.05c-10.56-6.09-21.31-11.85-31.99-17.75c-1.17-0.65-2.56-1-3.55-2.54
		c4.83-3.98,10.33-6.84,15.61-9.98c3.38-2.01,6.44-4.69,10.34-5.78c3.44,1.75,6.91,3.44,10.3,5.26
		C967.94,654.13,977.88,659.55,987.83,664.94z"/>
	<path class="st4" d="M1008.55,617.97c-0.65-0.19-1.3-0.39-1.96-0.58c-3.38-2.64-7.09-4.59-11.34-5.41
		c3.03-3.46,7.29-5.12,11.08-7.42c8.1-4.92,16.4-9.49,24.63-14.2c1.42-0.81,2.72-1.42,4.51-0.46c14.26,7.66,28.58,15.21,43.45,23.1
		c-5.98,3.52-11.32,7.37-17.59,9.6c-9.65-6.2-20.14-10.83-30.22-16.21c-0.88-0.47-1.6-0.24-2.43,0.23
		C1021.98,610.44,1015.26,614.2,1008.55,617.97z"/>
	<path class="st12" d="M1008.55,617.97c6.71-3.77,13.43-7.53,20.12-11.34c0.83-0.47,1.55-0.7,2.43-0.23
		c10.09,5.38,20.58,10.01,30.22,16.21c-1.33,2.85-4.32,3.62-6.68,4.97c-10.8,6.17-21.66,12.25-32.2,18.86
		c-2.52,1.59-4.69,1.64-7.2,0.05c-2.8-1.79-5.94-3.05-8.93-5.7c6.18-4.93,12.98-8.42,19.4-12.8
		C1020.34,623.76,1014.09,621.48,1008.55,617.97z"/>
	<path class="st12" d="M1059.6,588.52c8.82-6.11,18.56-10.62,27.87-15.86c1.09-0.61,2.08-0.53,3.19-0.04
		c10.23,4.59,20.16,9.78,30,15.16c0.29,0.16,0.46,0.55,0.69,0.83c-1.48,3.16-4.93,3.6-7.46,5.22c-5.75,3.68-11.77,6.95-17.68,10.39
		c-1.55,0.91-3.13,1.59-4.92,0.67C1080.72,599.42,1070.16,593.97,1059.6,588.52z"/>
	<path class="st12" d="M815.29,572.94c0.86,0.11,1.82,0,2.55,0.37c11.34,5.62,22.74,11.12,33.49,17.85
		c-7.7,4.58-15.43,9.11-23.09,13.77c-1.43,0.87-2.6,1.26-4.1,0.33c-10.13-6.34-20.97-11.38-31.35-17.25
		c-0.38-0.21-0.57-0.75-0.85-1.14c2.23-2.39,5.26-3.52,8.03-5.05C805.14,578.96,810.71,576.8,815.29,572.94z"/>
	<path class="st12" d="M1188.06,550.07c-5.11,4.01-11.15,6.46-16.65,9.83c-5.72,3.51-11.7,6.61-17.41,10.13
		c-2.67,1.64-4.86,1.88-7.51,0c-2.7-1.9-5.7-3.36-8.92-5.22c5.5-4.33,11.8-6.53,17.69-10.69c-5.05-2.66-9.72-5.08-14.36-7.58
		c-0.9-0.48-2.37-0.32-2.45-1.89c5.78-4.8,12.45-8.06,19.27-11.05c7.1,3.65,14.32,7.09,21.25,11.04
		C1182.02,546.37,1185.95,546.75,1188.06,550.07z"/>
	<path class="st4" d="M1157.72,533.59c-6.82,2.99-13.48,6.26-19.27,11.05c-0.47,0.01-0.93,0.03-1.39,0.04
		c-0.42-0.21-0.74-0.13-0.98,0.28c-5.02,2.8-10.1,5.48-15.01,8.45c-1.94,1.17-3.39,1.37-5.42,0.16c-3.73-2.23-7.66-4.1-11.89-6.32
		c7.05-4.19,13.63-8.38,20.48-12.09c10.86-5.89,21.61-11.94,32.09-18.47c1.93-1.2,3.52-1.31,5.47-0.08
		c4.2,2.66,9.05,4.17,12.95,7.36C1168.61,526.36,1162.73,529.21,1157.72,533.59z"/>
	<path class="st12" d="M935.25,635.27c-5.92,4.75-13.24,7.48-18.97,12.32c-5.83,4.93-10.54,4.7-16.55,0.45
		c-6.03-4.27-12.81-7.49-19.26-11.17c0.96-0.77,1.85-1.65,2.88-2.29c6.69-4.11,13.56-7.9,20.56-11.44c1.19-0.6,2.64-1,2.87-2.66
		c0.71,0.1,1.42,0.2,2.13,0.3c1.62,2.05,4.11,2.68,6.27,3.85C921.86,628.21,929.09,630.72,935.25,635.27z"/>
	<path class="st12" d="M768.54,542.8c4.2,2.06,8.37,4.18,12.62,6.13c1.42,0.65,2.66,1.04,2.52,3.03c-0.14,1.98,1.49,2.95,2.87,4.03
		c1.41,1.1,3.48,1.48,4.05,3.54c-5.64,4.98-12.82,7.58-18.74,12.08c-3.14,2.39-5.65,1.92-8.77,0.13
		c-6.48-3.71-13.13-7.09-19.71-10.62c-0.86-0.46-1.89-0.7-2.67-2.55C749.92,553.36,759.23,548.08,768.54,542.8z"/>
	<path class="st4" d="M987.83,664.94c-9.95-5.4-19.89-10.81-29.86-16.17c-3.4-1.83-6.87-3.51-10.3-5.26
		c4.45-4.11,9.94-6.6,15.04-9.68c0.96-0.58,1.89-0.42,2.83,0.1c12.92,7.06,25.85,14.1,38.78,21.16c0.32,0.17,0.56,0.48,1.11,0.97
		C999.38,658.9,994.35,663.35,987.83,664.94z"/>
	<path class="st13" d="M1157.72,533.59c5.01-4.38,10.88-7.22,17.03-9.6c4.33,0.92,7.78,3.7,11.66,5.58
		c5.6,2.71,11.09,5.64,16.59,8.53c1.05,0.55,2.42,0.76,3,2.51c-5.97,3.13-11.61,6.92-17.95,9.45c-2.11-3.32-6.04-3.7-9.09-5.44
		C1172.04,540.68,1164.82,537.24,1157.72,533.59z"/>
	<path class="st12" d="M756.77,534.7c-9.26,5.29-18.51,10.59-27.78,15.87c-0.87,0.49-1.77,0.92-2.81,0.34
		c-5.2-2.87-10.41-5.72-16.58-9.11c10.57-5.8,20.35-11.25,30.47-16.1C745.64,528.7,751.2,531.7,756.77,534.7z"/>
	<path class="st12" d="M863.37,597.73c4.76,2.33,9.56,4.58,14.25,7.04c1.36,0.71,2.98,1.29,3.74,2.88
		c-5.85,3.5-12.08,6.48-17.43,10.62c-5.72,4.43-10.6,4.9-16.2,0.24c-2.45-2.03-5.43-3.42-8.47-5.28c3.09-3.08,6.99-4.49,10.29-6.79
		C854.02,603.33,859.28,601.47,863.37,597.73z"/>
	<path class="st4" d="M935.25,635.27c-6.15-4.55-13.39-7.07-20.06-10.66c-2.16-1.16-4.65-1.79-6.27-3.85
		c0.1-0.87,0.72-1.27,1.44-1.55c5.69-2.21,11.25-4.78,17.27-6.03c7.64,4.14,15.29,8.28,23.66,12.81
		C945.55,629.33,940.4,632.3,935.25,635.27z"/>
	<path class="st13" d="M906.79,620.48c-0.23,1.66-1.68,2.06-2.87,2.66c-7,3.55-13.88,7.33-20.56,11.44
		c-1.04,0.64-1.93,1.52-2.88,2.29c-4.2-1.51-7.95-3.85-12.26-6.37c7.81-4.89,15.15-9.45,22.43-14.09c1.21-0.77,2.76-1.25,3.26-2.87
		c0.47,0.23,0.95,0.47,1.42,0.7C899.16,616.32,902.97,618.4,906.79,620.48z"/>
	<path class="st1" d="M756.77,534.7c-5.57-3-11.13-6-16.7-9c4.9-3.89,10.47-6.58,16.11-9.16c1.15-0.53,2.11-0.41,3.17,0.17
		c4.8,2.6,9.62,5.16,15.07,8.07C768.47,528.63,762.67,531.74,756.77,534.7z"/>
	<path class="st13" d="M815.29,572.94c-4.58,3.87-10.15,6.02-15.32,8.88c-2.76,1.53-5.8,2.66-8.03,5.05
		c-3.93-1.2-7.34-3.4-11.65-5.64c8.28-5.01,15.97-9.66,23.67-14.32C808.26,567.93,812.21,569.63,815.29,572.94z"/>
	<path class="st12" d="M995.26,611.98c4.25,0.82,7.96,2.77,11.34,5.41c0.02,1.82-1.56,2.1-2.71,2.71c-5.4,2.86-10.8,5.75-15.79,9.3
		c-2.02,1.43-3.81,1.68-5.76,0.17c-2.46-1.9-5.71-2.44-8.02-4.59c0.23-1.57,1.43-2.09,2.47-2.72c5.43-3.31,10.86-6.62,16.34-9.86
		C993.71,612.05,994.54,612.11,995.26,611.98z"/>
	<path class="st11" d="M906.79,620.48c-3.82-2.08-7.64-4.15-11.46-6.23c4.41-3.9,9.75-6.26,14.9-8.9c1.82-0.93,3.31,0.09,4.85,0.91
		c4,2.13,7.55,5.22,12.3,5.76c0.08,0.39,0.17,0.79,0.25,1.18c-6.02,1.26-11.58,3.82-17.27,6.03c-0.72,0.28-1.34,0.68-1.44,1.55
		C908.21,620.67,907.5,620.57,906.79,620.48z"/>
	<path class="st12" d="M1021.5,567.85c10.66-1.35,21.05-3.86,31.28-7.08c1.4-0.44,2.74-1.28,4.32-0.92
		c-3.52,3.05-7.82,4.79-11.87,6.94c-3.08,1.63-6.34,2.98-9.25,4.88c-2.72,1.77-5.03,1.54-7.61-0.04
		C1026.14,570.26,1023.8,569.1,1021.5,567.85z"/>
	<path class="st12" d="M1136.08,544.97c0.23-0.41,0.56-0.5,0.98-0.28C1136.73,544.78,1136.41,544.87,1136.08,544.97z"/>
	<path class="st0" d="M859.61,513.66c-1.35-2.67-2.6-5.36-3.28-8.32c-1.33-5.8,0.82-12.48,5.13-15.4c4.8-3.26,10.81-3.03,15.97,1.2
		c5.62,4.6,9.07,10.46,9.15,18.05c0.06,5.53-2.11,9.93-6.75,12.51c-4.5,2.5-9.21,1.33-13.43-1.43c-1.45-0.95-2.78-2.06-4.18-3.11
		c-2.41,6.57-8.69,8.34-14.54,3.98c-3.34-2.48-5.96-5.7-7.7-9.5c-0.93-2.04-1.91-4.43,0.99-5.77c2.59-1.2,4.18,0.18,5.3,2.55
		c0.85,1.79,1.78,3.61,3.01,5.15c1.45,1.81,3.21,3.31,5.56,0.91c1.24-1.27,2.84-0.47,4.29-0.42c0.16,0.59,0.45,1.08,1.09,1.25
		c0.13,0.24,0.15,0.74,0.57,0.23c0.01-0.02-0.26-0.26-0.4-0.4C860.42,514.48,860.15,514,859.61,513.66z M878.86,506.87
		c-0.08-5.51-5.08-10.94-9.92-10.77c-3.14,0.11-5.36,2.95-5.38,6.9c-0.03,5.48,5.01,11.45,9.49,11.24
		C876.6,514.07,878.92,511.13,878.86,506.87z"/>
	<path class="st9" d="M826.29,455.78c3.87-1.79,7.89-3.28,11.49-5.62c0.09,1.14,0.78,1.64,1.79,2.11
		c15.37,7.08,30.71,14.22,46.07,21.3c1.79,0.83,3.14,2.55,5.3,2.63c-0.01,2.33,2.85,2.88,3.11,5.04c-0.12,0.04-0.24,0.06-0.36,0.11
		c-5.77,2.34-10.48,1.93-16.39-1.68c-9.82-5.99-20.99-9.74-31.48-14.67C839.31,461.94,832.52,459.45,826.29,455.78z"/>
	<path class="st14" d="M894.06,481.25c-0.26-2.16-3.12-2.71-3.11-5.04c20.19-9.08,39.27-20.36,59.25-29.86
		c0.96-0.46,2.19-0.76,2.21-2.21c2.92,1.57,6.44,1.81,9.09,3.99c-0.94,2-2.99,2.52-4.71,3.39c-19.77,10.06-39.04,21.1-59.29,30.23
		c-0.52,0.23-0.87,0.83-1.3,1.26C895.49,482.43,894.77,481.84,894.06,481.25z"/>
	<path class="st7" d="M924.57,308.03c11.25-6.73,23.27-11.99,34.71-18.36c4.36-2.43,9.03-4.36,13.19-7.08
		c9.65-6.29,19.08-5.66,29.01-0.6c14.56,7.41,29.34,14.4,44.03,21.57c0.13,0.17,0.31,0.27,0.53,0.27c0.33,0.16,0.65,0.32,0.98,0.48
		c0.15,0.18,0.34,0.26,0.58,0.25c0.3,0.13,0.6,0.27,0.9,0.4c0.22,0.11,0.43,0.22,0.65,0.33c1.77,0.85,3.53,1.69,5.3,2.54
		c0.66,2.04,3.31,1.58,4.38,3.64c-4.45,2.42-8.84,4.91-13.33,7.22c-13.49,6.95-27.05,13.77-40.52,20.76
		c-6.16,3.19-12.19,2.14-17.96-0.54c-18.96-8.8-37.83-17.81-56.7-26.82C928.21,311.09,925.14,311.27,924.57,308.03z"/>
	<path class="st0" d="M1074.27,480.05c-0.08,7.28-3.2,13.2-8.31,18.15c-2.67,2.59-5.94,3.77-9.6,2.57
		c-3.67-1.21-4.91-4.42-5.46-7.84c-1.15-7.19,1.04-13.54,5.33-19.23c3.33-4.41,8.02-6.26,11.96-4.95
		C1072.23,470.09,1074.33,473.99,1074.27,480.05z"/>
	<path class="st8" d="M1079.24,462.76c-0.33-0.1-0.65-0.19-0.98-0.29c0.06-0.1,0.13-0.19,0.19-0.29c0.27,0.19,0.53,0.38,0.8,0.56
		C1079.26,462.75,1079.24,462.76,1079.24,462.76z"/>
	<path class="st8" d="M1079.98,463.51c-0.25-0.25-0.49-0.5-0.74-0.76c0,0,0.01-0.01,0.01-0.01c0.25,0.25,0.5,0.49,0.75,0.74
		C1080.01,463.49,1079.98,463.51,1079.98,463.51z"/>
	<path class="st0" d="M946.75,552.61c0.43-4.94,2.01-9.57,5.81-13.21c3.98-3.81,8.6-2.88,10.84,2.13c2.93,6.57-2.5,17.69-9.5,19.46
		C949.86,562.01,946.68,558.35,946.75,552.61z"/>
	<path class="st8" d="M967.49,534.75c-0.1-0.11-0.2-0.23-0.3-0.34c0.07,0.02,0.17,0.01,0.21,0.06c0.06,0.07,0.07,0.18,0.11,0.27
		C967.51,534.74,967.49,534.75,967.49,534.75z"/>
	<path class="st9" d="M1046.04,303.83c-0.22-0.01-0.4-0.1-0.53-0.27C1045.88,303.28,1046.02,303.44,1046.04,303.83z"/>
	<path class="st9" d="M1049.14,305.29c-0.22-0.11-0.43-0.22-0.65-0.33C1048.89,304.72,1049.07,304.9,1049.14,305.29z"/>
	<path class="st9" d="M1047.6,304.56c-0.23,0.01-0.43-0.08-0.58-0.25C1047.37,304.03,1047.53,304.19,1047.6,304.56z"/>
	<path class="st2" d="M878.86,506.87c0.06,4.26-2.26,7.2-5.81,7.37c-4.48,0.21-9.51-5.76-9.49-11.24c0.02-3.94,2.24-6.79,5.38-6.9
		C873.79,495.93,878.78,501.36,878.86,506.87z"/>
	<path class="st4" d="M859.61,513.66c0.54,0.34,0.82,0.82,0.77,1.47l-0.17,0.17c-0.65-0.17-0.93-0.66-1.09-1.25
		C859.28,513.92,859.44,513.79,859.61,513.66z"/>
	<path class="st4" d="M860.38,515.13c0.14,0.14,0.41,0.38,0.4,0.4c-0.41,0.52-0.44,0.01-0.57-0.23
		C860.21,515.3,860.38,515.13,860.38,515.13z"/>
</g>
</svg>
